STARTFONT 2.1
FONT -Monotype-Book Antiqua-Bold-I-Normal--14-140-75-75-P-78-iso8859-4
SIZE 14 75 75
FONTBOUNDINGBOX 26 20 -10 -5

STARTPROPERTIES 24
FOUNDRY "Monotype"
FAMILY_NAME "Book Antiqua"
WEIGHT_NAME "Bold"
SLANT "I"
SETWIDTH_NAME "Normal"
ADD_STYLE_NAME ""
PIXEL_SIZE 14
POINT_SIZE 140
RESOLUTION_X 75
RESOLUTION_Y 75
SPACING "P"
AVERAGE_WIDTH 78
CHARSET_REGISTRY "iso8859"
CHARSET_ENCODING "4"
FACE_NAME "Book Antiqua Bold Italic ISO Latin4"
_DEC_DEVICE_FONTNAMES "PS=bookantiqua-bit-lat4"
COPYRIGHT "Copyright (c) 1994 Monotype Typography Ltd."
CAP_HEIGHT 13
X_HEIGHT 9
WEIGHT 10
QUAD_WIDTH 9
DEFAULT_CHAR 160
FONT_DESCENT 5
FONT_ASCENT 15
ENDPROPERTIES

CHARS 191

STARTCHAR space
ENCODING 32
SWIDTH 250 0
DWIDTH 4 0
BBX 0 0 0 0
BITMAP
ENDCHAR

STARTCHAR exclam
ENCODING 33
SWIDTH 333 0
DWIDTH 5 0
BBX 4 12 0 0
BITMAP
10
30
30
30
20
60
60
60
40
00
C0
C0
ENDCHAR

STARTCHAR quotedbl
ENCODING 34
SWIDTH 500 0
DWIDTH 8 0
BBX 5 4 2 7
BITMAP
D8
D8
D8
48
ENDCHAR

STARTCHAR numbersign
ENCODING 35
SWIDTH 606 0
DWIDTH 9 0
BBX 9 11 0 0
BITMAP
1B00
1B00
1B00
7F80
3600
3600
3600
FF00
6C00
6C00
6C00
ENDCHAR

STARTCHAR dollar
ENCODING 36
SWIDTH 500 0
DWIDTH 8 0
BBX 8 14 0 -2
BITMAP
04
1F
29
69
68
7C
3E
16
16
96
9C
F8
20
20
ENDCHAR

STARTCHAR percent
ENCODING 37
SWIDTH 889 0
DWIDTH 13 0
BBX 10 11 2 0
BITMAP
20C0
7180
B100
B200
A600
4480
09C0
1AC0
12C0
2280
6100
ENDCHAR

STARTCHAR ampersand
ENCODING 38
SWIDTH 833 0
DWIDTH 12 0
BBX 11 11 1 0
BITMAP
0E00
1A00
1000
3020
3820
30C0
6300
C580
C180
6300
3C00
ENDCHAR

STARTCHAR quoteright
ENCODING 39
SWIDTH 278 0
DWIDTH 4 0
BBX 3 4 0 8
BITMAP
60
60
40
80
ENDCHAR

STARTCHAR parenleft
ENCODING 40
SWIDTH 333 0
DWIDTH 5 0
BBX 5 16 1 -4
BITMAP
08
10
20
60
60
60
C0
C0
C0
C0
C0
C0
C0
40
40
20
ENDCHAR

STARTCHAR parenright
ENCODING 41
SWIDTH 333 0
DWIDTH 5 0
BBX 5 16 -1 -4
BITMAP
20
10
10
18
18
18
18
18
18
18
30
30
30
20
40
80
ENDCHAR

STARTCHAR asterisk
ENCODING 42
SWIDTH 444 0
DWIDTH 7 0
BBX 5 6 1 6
BITMAP
20
A8
70
70
A8
20
ENDCHAR

STARTCHAR plus
ENCODING 43
SWIDTH 606 0
DWIDTH 9 0
BBX 8 8 1 1
BITMAP
18
18
18
FF
FF
18
18
18
ENDCHAR

STARTCHAR comma
ENCODING 44
SWIDTH 250 0
DWIDTH 4 0
BBX 3 4 0 -2
BITMAP
60
60
40
80
ENDCHAR

STARTCHAR minus
ENCODING 45
SWIDTH 606 0
DWIDTH 9 0
BBX 7 2 1 4
BITMAP
FE
FE
ENDCHAR

STARTCHAR period
ENCODING 46
SWIDTH 250 0
DWIDTH 4 0
BBX 2 2 1 0
BITMAP
C0
C0
ENDCHAR

STARTCHAR slash
ENCODING 47
SWIDTH 315 0
DWIDTH 5 0
BBX 9 16 -1 -4
BITMAP
0180
0180
0300
0300
0600
0600
0C00
0C00
1800
1800
3000
3000
6000
6000
C000
C000
ENDCHAR

STARTCHAR zero
ENCODING 48
SWIDTH 500 0
DWIDTH 8 0
BBX 7 11 1 0
BITMAP
1C
26
66
66
C6
C6
C6
CC
CC
C8
70
ENDCHAR

STARTCHAR one
ENCODING 49
SWIDTH 500 0
DWIDTH 8 0
BBX 7 11 1 0
BITMAP
02
1E
0C
0C
18
18
18
30
30
30
FC
ENDCHAR

STARTCHAR two
ENCODING 50
SWIDTH 500 0
DWIDTH 8 0
BBX 8 11 0 0
BITMAP
1E
27
23
03
03
06
04
08
10
7E
FC
ENDCHAR

STARTCHAR three
ENCODING 51
SWIDTH 500 0
DWIDTH 8 0
BBX 8 11 0 0
BITMAP
1E
23
23
03
06
38
04
06
86
8C
78
ENDCHAR

STARTCHAR four
ENCODING 52
SWIDTH 500 0
DWIDTH 8 0
BBX 8 11 0 0
BITMAP
02
06
0E
16
26
4C
8C
FF
18
18
7E
ENDCHAR

STARTCHAR five
ENCODING 53
SWIDTH 500 0
DWIDTH 8 0
BBX 8 11 0 0
BITMAP
1F
1E
20
20
7C
4E
06
06
06
8C
78
ENDCHAR

STARTCHAR six
ENCODING 54
SWIDTH 500 0
DWIDTH 8 0
BBX 7 11 1 0
BITMAP
06
18
30
30
60
7C
E6
C6
C6
CC
78
ENDCHAR

STARTCHAR seven
ENCODING 55
SWIDTH 500 0
DWIDTH 8 0
BBX 7 11 1 0
BITMAP
7E
FE
06
0C
08
18
10
30
60
60
C0
ENDCHAR

STARTCHAR eight
ENCODING 56
SWIDTH 500 0
DWIDTH 8 0
BBX 6 11 1 0
BITMAP
18
2C
64
64
6C
38
58
CC
8C
CC
78
ENDCHAR

STARTCHAR nine
ENCODING 57
SWIDTH 500 0
DWIDTH 8 0
BBX 7 11 1 0
BITMAP
3C
66
C6
C6
CE
7C
0C
18
18
30
C0
ENDCHAR

STARTCHAR colon
ENCODING 58
SWIDTH 250 0
DWIDTH 4 0
BBX 3 7 1 0
BITMAP
60
60
00
00
00
C0
C0
ENDCHAR

STARTCHAR semicolon
ENCODING 59
SWIDTH 250 0
DWIDTH 4 0
BBX 4 9 0 -2
BITMAP
30
30
00
00
00
60
60
40
80
ENDCHAR

STARTCHAR less
ENCODING 60
SWIDTH 606 0
DWIDTH 9 0
BBX 7 8 1 1
BITMAP
02
0E
38
E0
E0
38
0E
02
ENDCHAR

STARTCHAR equal
ENCODING 61
SWIDTH 606 0
DWIDTH 9 0
BBX 7 6 1 2
BITMAP
FE
FE
00
00
FE
FE
ENDCHAR

STARTCHAR greater
ENCODING 62
SWIDTH 606 0
DWIDTH 9 0
BBX 7 8 1 1
BITMAP
80
E0
38
0E
0E
38
E0
80
ENDCHAR

STARTCHAR question
ENCODING 63
SWIDTH 444 0
DWIDTH 7 0
BBX 5 12 1 0
BITMAP
70
D8
98
18
18
30
20
40
40
00
C0
C0
ENDCHAR

STARTCHAR at
ENCODING 64
SWIDTH 833 0
DWIDTH 12 0
BBX 11 13 1 -2
BITMAP
0780
1840
2020
4520
4F20
8920
9920
9A40
9EC0
4B20
4040
3180
0E00
ENDCHAR

STARTCHAR A
ENCODING 65
SWIDTH 722 0
DWIDTH 11 0
BBX 10 11 0 0
BITMAP
0180
0180
0380
0380
0580
0980
1F80
1180
2180
4180
E3C0
ENDCHAR

STARTCHAR B
ENCODING 66
SWIDTH 667 0
DWIDTH 10 0
BBX 9 11 0 0
BITMAP
3F00
1980
1980
1980
3100
3E00
3100
6180
6180
6300
FE00
ENDCHAR

STARTCHAR C
ENCODING 67
SWIDTH 685 0
DWIDTH 10 0
BBX 9 11 1 0
BITMAP
0F80
3080
6080
6000
C000
C000
C000
C000
C000
6100
3E00
ENDCHAR

STARTCHAR D
ENCODING 68
SWIDTH 778 0
DWIDTH 12 0
BBX 11 11 0 0
BITMAP
3F80
18C0
1860
1860
3060
3060
3060
60C0
60C0
6180
FE00
ENDCHAR

STARTCHAR E
ENCODING 69
SWIDTH 611 0
DWIDTH 9 0
BBX 9 11 0 0
BITMAP
3F80
1880
1880
1800
3000
3E00
3000
6000
6080
6100
FF00
ENDCHAR

STARTCHAR F
ENCODING 70
SWIDTH 556 0
DWIDTH 8 0
BBX 9 11 0 0
BITMAP
3F80
1880
1880
1800
3000
3E00
3000
6000
6000
6000
F000
ENDCHAR

STARTCHAR G
ENCODING 71
SWIDTH 778 0
DWIDTH 12 0
BBX 10 11 1 0
BITMAP
0FC0
3040
6040
6000
C000
C000
C3C0
C180
C180
6100
3E00
ENDCHAR

STARTCHAR H
ENCODING 72
SWIDTH 778 0
DWIDTH 12 0
BBX 12 11 0 0
BITMAP
3CF0
1860
1860
1860
30C0
3FC0
30C0
6180
6180
6180
F3C0
ENDCHAR

STARTCHAR I
ENCODING 73
SWIDTH 389 0
DWIDTH 6 0
BBX 6 11 0 0
BITMAP
3C
18
18
18
30
30
30
60
60
60
F0
ENDCHAR

STARTCHAR J
ENCODING 74
SWIDTH 389 0
DWIDTH 6 0
BBX 6 15 0 -4
BITMAP
3C
18
18
18
18
30
30
30
30
30
60
60
60
40
80
ENDCHAR

STARTCHAR K
ENCODING 75
SWIDTH 722 0
DWIDTH 10 0
BBX 10 11 0 0
BITMAP
3CC0
1880
1900
1A00
3400
3800
3800
6C00
6600
6300
F380
ENDCHAR

STARTCHAR L
ENCODING 76
SWIDTH 611 0
DWIDTH 9 0
BBX 9 11 0 0
BITMAP
3C00
1800
1800
1800
3000
3000
3000
6000
6080
6100
FF00
ENDCHAR

STARTCHAR M
ENCODING 77
SWIDTH 944 0
DWIDTH 14 0
BBX 14 11 0 0
BITMAP
3C3C
1C38
1C58
2C58
2CB0
2CB0
2D30
4D60
4E60
4E60
ECF0
ENDCHAR

STARTCHAR N
ENCODING 78
SWIDTH 778 0
DWIDTH 12 0
BBX 12 11 0 0
BITMAP
3070
1820
1820
1C20
2C40
2640
2640
4380
4380
4180
E180
ENDCHAR

STARTCHAR O
ENCODING 79
SWIDTH 833 0
DWIDTH 12 0
BBX 11 11 1 0
BITMAP
0F80
30C0
6060
6060
C060
C060
C060
C0C0
C0C0
6180
3E00
ENDCHAR

STARTCHAR P
ENCODING 80
SWIDTH 667 0
DWIDTH 10 0
BBX 10 11 0 0
BITMAP
3F80
18C0
18C0
18C0
30C0
3180
3700
6000
6000
6000
F000
ENDCHAR

STARTCHAR Q
ENCODING 81
SWIDTH 833 0
DWIDTH 12 0
BBX 11 14 1 -3
BITMAP
0F80
30C0
6060
6060
C060
C060
C060
C0C0
C0C0
6180
3E00
3800
6E60
03C0
ENDCHAR

STARTCHAR R
ENCODING 82
SWIDTH 722 0
DWIDTH 11 0
BBX 11 11 0 0
BITMAP
3F80
18C0
18C0
18C0
30C0
3780
3300
6180
6180
60C0
F0E0
ENDCHAR

STARTCHAR S
ENCODING 83
SWIDTH 556 0
DWIDTH 8 0
BBX 8 11 0 0
BITMAP
1F
31
61
60
7C
3E
06
06
86
8C
F8
ENDCHAR

STARTCHAR T
ENCODING 84
SWIDTH 611 0
DWIDTH 9 0
BBX 10 11 0 0
BITMAP
FFC0
8C40
8C40
0C00
1800
1800
1800
3000
3000
3000
7800
ENDCHAR

STARTCHAR U
ENCODING 85
SWIDTH 778 0
DWIDTH 12 0
BBX 11 11 1 0
BITMAP
71E0
30C0
30C0
30C0
6180
6180
6180
C300
C300
C700
7B80
ENDCHAR

STARTCHAR V
ENCODING 86
SWIDTH 667 0
DWIDTH 10 0
BBX 10 11 1 0
BITMAP
F3C0
6180
6100
6100
6200
6200
6400
6800
6800
7000
6000
ENDCHAR

STARTCHAR W
ENCODING 87
SWIDTH 1000 0
DWIDTH 15 0
BBX 15 11 1 0
BITMAP
F11E
610C
6188
6388
3390
3590
3590
38A0
18E0
18C0
18C0
ENDCHAR

STARTCHAR X
ENCODING 88
SWIDTH 722 0
DWIDTH 11 0
BBX 11 11 0 0
BITMAP
78E0
3040
1880
1900
0E00
0400
0E00
1300
2300
4180
E3C0
ENDCHAR

STARTCHAR Y
ENCODING 89
SWIDTH 611 0
DWIDTH 9 0
BBX 10 11 0 0
BITMAP
60C0
E180
3100
3200
1A00
1C00
0C00
0C00
1800
1800
3C00
ENDCHAR

STARTCHAR Z
ENCODING 90
SWIDTH 667 0
DWIDTH 10 0
BBX 10 11 0 0
BITMAP
3FC0
20C0
4180
0300
0600
0C00
0C00
1800
3080
6100
FF00
ENDCHAR

STARTCHAR bracketleft
ENCODING 91
SWIDTH 333 0
DWIDTH 5 0
BBX 6 16 0 -4
BITMAP
3C
30
30
30
30
60
60
60
60
60
60
C0
C0
C0
C0
F0
ENDCHAR

STARTCHAR backslash
ENCODING 92
SWIDTH 606 0
DWIDTH 5 0
BBX 9 16 -2 -4
BITMAP
C000
C000
6000
6000
3000
3000
1800
1800
0C00
0C00
0600
0600
0300
0300
0180
0180
ENDCHAR

STARTCHAR bracketright
ENCODING 93
SWIDTH 333 0
DWIDTH 5 0
BBX 6 16 -1 -4
BITMAP
3C
0C
0C
0C
0C
18
18
18
18
18
18
30
30
30
30
F0
ENDCHAR

STARTCHAR asciicircum
ENCODING 94
SWIDTH 606 0
DWIDTH 9 0
BBX 8 6 1 5
BITMAP
18
3C
3C
66
66
C3
ENDCHAR

STARTCHAR underscore
ENCODING 95
SWIDTH 500 0
DWIDTH 8 0
BBX 8 2 0 -3
BITMAP
FF
FF
ENDCHAR

STARTCHAR quoteleft
ENCODING 96
SWIDTH 278 0
DWIDTH 4 0
BBX 3 4 1 8
BITMAP
20
40
C0
C0
ENDCHAR

STARTCHAR a
ENCODING 97
SWIDTH 556 0
DWIDTH 8 0
BBX 18 7 -10 0
BITMAP
000680
000980
001180
003300
803300
003740
001980
ENDCHAR

STARTCHAR b
ENCODING 98
SWIDTH 537 0
DWIDTH 8 0
BBX 7 12 1 0
BITMAP
10
70
30
30
60
6C
76
66
C6
C4
C8
70
ENDCHAR

STARTCHAR c
ENCODING 99
SWIDTH 444 0
DWIDTH 7 0
BBX 6 7 1 0
BITMAP
1C
24
40
C0
C0
C8
70
ENDCHAR

STARTCHAR d
ENCODING 100
SWIDTH 556 0
DWIDTH 8 0
BBX 8 12 0 0
BITMAP
01
07
03
03
06
1E
26
66
CC
CC
DD
66
ENDCHAR

STARTCHAR e
ENCODING 101
SWIDTH 444 0
DWIDTH 7 0
BBX 6 7 1 0
BITMAP
1C
2C
48
F0
C0
C8
70
ENDCHAR

STARTCHAR f
ENCODING 102
SWIDTH 333 0
DWIDTH 5 0
BBX 8 16 -1 -4
BITMAP
03
05
0C
0C
0C
3E
18
18
18
18
30
30
30
20
A0
C0
ENDCHAR

STARTCHAR g
ENCODING 103
SWIDTH 500 0
DWIDTH 8 0
BBX 8 11 0 -4
BITMAP
0D
17
36
36
1C
30
3C
46
C6
C4
78
ENDCHAR

STARTCHAR h
ENCODING 104
SWIDTH 556 0
DWIDTH 8 0
BBX 8 12 0 0
BITMAP
10
70
30
30
30
6C
76
66
66
CC
CD
C6
ENDCHAR

STARTCHAR i
ENCODING 105
SWIDTH 333 0
DWIDTH 5 0
BBX 4 11 1 0
BITMAP
30
30
00
00
30
F0
60
60
C0
D0
60
ENDCHAR

STARTCHAR j
ENCODING 106
SWIDTH 333 0
DWIDTH 5 0
BBX 5 15 0 -4
BITMAP
18
18
00
00
18
78
30
30
30
60
60
60
40
40
80
ENDCHAR

STARTCHAR k
ENCODING 107
SWIDTH 556 0
DWIDTH 8 0
BBX 8 12 0 0
BITMAP
10
70
30
30
30
63
6C
78
70
D8
CD
C6
ENDCHAR

STARTCHAR l
ENCODING 108
SWIDTH 333 0
DWIDTH 5 0
BBX 4 12 1 0
BITMAP
10
70
30
30
60
60
60
60
C0
C0
D0
60
ENDCHAR

STARTCHAR m
ENCODING 109
SWIDTH 833 0
DWIDTH 12 0
BBX 12 7 0 0
BITMAP
2EC0
F760
6660
6660
CCC0
CCD0
CC60
ENDCHAR

STARTCHAR n
ENCODING 110
SWIDTH 556 0
DWIDTH 8 0
BBX 8 7 0 0
BITMAP
2C
F6
66
66
CC
CD
C6
ENDCHAR

STARTCHAR o
ENCODING 111
SWIDTH 556 0
DWIDTH 8 0
BBX 7 7 1 0
BITMAP
1C
26
46
C6
C4
C8
70
ENDCHAR

STARTCHAR p
ENCODING 112
SWIDTH 556 0
DWIDTH 8 0
BBX 8 11 0 -4
BITMAP
16
7B
33
33
62
64
78
60
C0
C0
80
ENDCHAR

STARTCHAR q
ENCODING 113
SWIDTH 537 0
DWIDTH 8 0
BBX 7 11 1 -4
BITMAP
1A
36
66
66
CC
DC
6C
18
18
18
10
ENDCHAR

STARTCHAR r
ENCODING 114
SWIDTH 389 0
DWIDTH 6 0
BBX 6 7 1 0
BITMAP
5C
F4
60
60
C0
C0
C0
ENDCHAR

STARTCHAR s
ENCODING 115
SWIDTH 444 0
DWIDTH 7 0
BBX 6 7 1 0
BITMAP
3C
64
60
30
18
98
F0
ENDCHAR

STARTCHAR t
ENCODING 116
SWIDTH 389 0
DWIDTH 6 0
BBX 6 10 1 0
BITMAP
10
30
30
FC
60
60
C0
C0
D0
60
ENDCHAR

STARTCHAR u
ENCODING 117
SWIDTH 556 0
DWIDTH 8 0
BBX 8 7 0 0
BITMAP
26
E6
66
CC
CC
CD
76
ENDCHAR

STARTCHAR v
ENCODING 118
SWIDTH 556 0
DWIDTH 8 0
BBX 8 7 0 0
BITMAP
72
B3
31
61
62
64
38
ENDCHAR

STARTCHAR w
ENCODING 119
SWIDTH 833 0
DWIDTH 12 0
BBX 12 7 0 0
BITMAP
7120
B330
3310
6310
6720
6B40
3180
ENDCHAR

STARTCHAR x
ENCODING 120
SWIDTH 500 0
DWIDTH 8 0
BBX 8 7 0 0
BITMAP
73
B5
18
18
38
AA
CC
ENDCHAR

STARTCHAR y
ENCODING 121
SWIDTH 556 0
DWIDTH 8 0
BBX 8 11 0 -4
BITMAP
63
B3
33
66
66
6E
36
04
0C
88
70
ENDCHAR

STARTCHAR z
ENCODING 122
SWIDTH 500 0
DWIDTH 7 0
BBX 7 7 0 0
BITMAP
3A
5C
08
10
20
74
BC
ENDCHAR

STARTCHAR braceleft
ENCODING 123
SWIDTH 333 0
DWIDTH 5 0
BBX 6 16 0 -4
BITMAP
0C
10
30
30
30
60
60
80
C0
60
60
60
C0
C0
40
20
ENDCHAR

STARTCHAR bar
ENCODING 124
SWIDTH 606 0
DWIDTH 9 0
BBX 2 16 4 -4
BITMAP
C0
C0
C0
C0
C0
C0
C0
C0
C0
C0
C0
C0
C0
C0
C0
C0
ENDCHAR

STARTCHAR braceright
ENCODING 125
SWIDTH 333 0
DWIDTH 5 0
BBX 6 16 -1 -4
BITMAP
10
08
0C
0C
18
18
18
0C
04
18
18
30
30
30
20
C0
ENDCHAR

STARTCHAR asciitilde
ENCODING 126
SWIDTH 606 0
DWIDTH 9 0
BBX 8 2 1 4
BITMAP
79
9E
ENDCHAR

STARTCHAR space
ENCODING 160
SWIDTH 250 0
DWIDTH 5 0
BBX 0 0 0 0
BITMAP
ENDCHAR

STARTCHAR Aogonek
ENCODING 161
SWIDTH 722 0
DWIDTH 11 0
BBX 10 13 0 -2
BITMAP
0180
0180
0380
0380
0580
0980
1F80
1180
2180
4180
E3C0
0300
01C0
ENDCHAR

STARTCHAR afii240
ENCODING 162
SWIDTH 500 0
DWIDTH 8 0
BBX 9 7 -1 0
BITMAP
3D80
1900
3200
3C00
6C00
6600
F700
ENDCHAR

STARTCHAR Rcommaaccent
ENCODING 163
SWIDTH 722 0
DWIDTH 11 0
BBX 11 16 0 -5
BITMAP
3F80
18C0
18C0
18C0
30C0
3780
3300
6180
6180
60C0
F0E0
0000
0C00
0C00
0800
1000
ENDCHAR

STARTCHAR currency
ENCODING 164
SWIDTH 606 0
DWIDTH 9 0
BBX 8 8 1 1
BITMAP
DB
FF
42
C3
C3
42
FF
DB
ENDCHAR

STARTCHAR Itilde
ENCODING 165
SWIDTH 389 0
DWIDTH 6 0
BBX 8 14 0 0
BITMAP
0D
16
00
3C
18
18
18
30
30
30
60
60
60
F0
ENDCHAR

STARTCHAR Lcommaaccent
ENCODING 166
SWIDTH 611 0
DWIDTH 9 0
BBX 9 16 0 -5
BITMAP
3C00
1800
1800
1800
3000
3000
3000
6000
6080
6100
FF00
0000
1800
1800
1000
2000
ENDCHAR

STARTCHAR section
ENCODING 167
SWIDTH 556 0
DWIDTH 8 0
BBX 8 16 0 -4
BITMAP
0F
11
31
30
38
6C
64
66
26
36
1C
0C
0C
8C
88
F0
ENDCHAR

STARTCHAR hungarumlaut
ENCODING 168
SWIDTH 333 0
DWIDTH 5 0
BBX 6 2 0 8
BITMAP
6C
D8
ENDCHAR

STARTCHAR Scaron
ENCODING 169
SWIDTH 556 0
DWIDTH 8 0
BBX 8 14 0 0
BITMAP
1B
0E
00
1F
31
61
60
7C
3E
06
06
86
8C
F8
ENDCHAR

STARTCHAR Emacron
ENCODING 170
SWIDTH 611 0
DWIDTH 9 0
BBX 9 13 0 0
BITMAP
0F80
0000
3F80
1880
1880
1800
3000
3E00
3000
6000
6080
6100
FF00
ENDCHAR

STARTCHAR Gcommaaccent
ENCODING 171
SWIDTH 778 0
DWIDTH 12 0
BBX 10 16 1 -5
BITMAP
0FC0
3040
6040
6000
C000
C000
C3C0
C180
C180
6100
3E00
0000
0C00
0C00
0800
1000
ENDCHAR

STARTCHAR afii237
ENCODING 172
SWIDTH 611 0
DWIDTH 9 0
BBX 10 11 0 0
BITMAP
FFC0
8C40
8C40
0C00
1800
1800
FE00
3000
3000
3000
7800
ENDCHAR

STARTCHAR hyphen
ENCODING 173
SWIDTH 389 0
DWIDTH 6 0
BBX 5 2 1 3
BITMAP
F8
F8
ENDCHAR

STARTCHAR Zcaron
ENCODING 174
SWIDTH 667 0
DWIDTH 10 0
BBX 10 14 0 0
BITMAP
0D80
0700
0000
3FC0
20C0
4180
0300
0600
0C00
0C00
1800
3080
6100
FF00
ENDCHAR

STARTCHAR macron
ENCODING 175
SWIDTH 333 0
DWIDTH 5 0
BBX 5 1 1 8
BITMAP
F8
ENDCHAR

STARTCHAR degree
ENCODING 176
SWIDTH 396 0
DWIDTH 6 0
BBX 5 5 1 6
BITMAP
70
D8
D8
D8
70
ENDCHAR

STARTCHAR aogonek
ENCODING 177
SWIDTH 556 0
DWIDTH 8 0
BBX 9 9 0 -2
BITMAP
1A00
2600
4600
CC00
CC00
DD00
6600
0600
0380
ENDCHAR

STARTCHAR ogonek
ENCODING 178
SWIDTH 333 0
DWIDTH 5 0
BBX 4 2 0 -2
BITMAP
C0
70
ENDCHAR

STARTCHAR rcommaaccent
ENCODING 179
SWIDTH 389 0
DWIDTH 6 0
BBX 7 12 0 -5
BITMAP
2E
7A
30
30
60
60
60
00
60
60
40
80
ENDCHAR

STARTCHAR acute
ENCODING 180
SWIDTH 333 0
DWIDTH 5 0
BBX 3 2 2 8
BITMAP
60
C0
ENDCHAR

STARTCHAR itilde
ENCODING 181
SWIDTH 333 0
DWIDTH 5 0
BBX 6 10 1 0
BITMAP
34
58
00
30
F0
60
60
C0
D0
60
ENDCHAR

STARTCHAR lcommaaccent
ENCODING 182
SWIDTH 333 0
DWIDTH 5 0
BBX 5 17 0 -5
BITMAP
08
38
18
18
30
30
30
30
60
60
68
30
00
60
60
40
80
ENDCHAR

STARTCHAR caron
ENCODING 183
SWIDTH 333 0
DWIDTH 5 0
BBX 5 2 1 8
BITMAP
D8
70
ENDCHAR

STARTCHAR commaaccent
ENCODING 184
SWIDTH 333 0
DWIDTH 5 0
BBX 3 4 0 -5
BITMAP
60
60
40
80
ENDCHAR

STARTCHAR scaron
ENCODING 185
SWIDTH 444 0
DWIDTH 7 0
BBX 7 10 1 0
BITMAP
36
1C
00
3C
64
60
30
18
98
F0
ENDCHAR

STARTCHAR emacron
ENCODING 186
SWIDTH 444 0
DWIDTH 7 0
BBX 7 9 1 0
BITMAP
3E
00
1C
2C
48
F0
C0
C8
70
ENDCHAR

STARTCHAR gcommaaccent
ENCODING 187
SWIDTH 500 0
DWIDTH 8 0
BBX 8 15 0 -4
BITMAP
02
04
04
00
0D
17
36
36
1C
30
3C
46
C6
C4
78
ENDCHAR

STARTCHAR afii253
ENCODING 188
SWIDTH 278 0
DWIDTH 6 0
BBX 7 10 0 0
BITMAP
08
18
18
7E
30
FC
60
60
68
30
ENDCHAR

STARTCHAR afii238
ENCODING 189
SWIDTH 775 0
DWIDTH 12 0
BBX 12 11 0 0
BITMAP
39E0
1A30
1C30
1830
3030
3030
3030
3060
6460
66C0
F380
ENDCHAR

STARTCHAR zcaron
ENCODING 190
SWIDTH 500 0
DWIDTH 7 0
BBX 7 10 0 0
BITMAP
36
1C
00
3A
5C
08
10
20
74
BC
ENDCHAR

STARTCHAR afii254
ENCODING 191
SWIDTH 477 0
DWIDTH 7 0
BBX 7 10 0 -3
BITMAP
6C
76
66
66
CC
CC
CC
18
50
60
ENDCHAR

STARTCHAR Amacron
ENCODING 192
SWIDTH 722 0
DWIDTH 11 0
BBX 11 13 0 0
BITMAP
03E0
0000
0180
0180
0380
0380
0580
0980
1F80
1180
2180
4180
E3C0
ENDCHAR

STARTCHAR Aacute
ENCODING 193
SWIDTH 722 0
DWIDTH 11 0
BBX 10 14 0 0
BITMAP
00C0
0180
0000
0180
0180
0380
0380
0580
0980
1F80
1180
2180
4180
E3C0
ENDCHAR

STARTCHAR Acircumflex
ENCODING 194
SWIDTH 722 0
DWIDTH 11 0
BBX 11 14 0 0
BITMAP
01C0
0360
0000
0180
0180
0380
0380
0580
0980
1F80
1180
2180
4180
E3C0
ENDCHAR

STARTCHAR Atilde
ENCODING 195
SWIDTH 722 0
DWIDTH 11 0
BBX 11 14 0 0
BITMAP
01A0
02C0
0000
0180
0180
0380
0380
0580
0980
1F80
1180
2180
4180
E3C0
ENDCHAR

STARTCHAR Adieresis
ENCODING 196
SWIDTH 722 0
DWIDTH 11 0
BBX 11 14 0 0
BITMAP
0360
0360
0000
0180
0180
0380
0380
0580
0980
1F80
1180
2180
4180
E3C0
ENDCHAR

STARTCHAR Aring
ENCODING 197
SWIDTH 722 0
DWIDTH 11 0
BBX 10 15 0 0
BITMAP
0180
0240
0180
0000
0180
0180
0380
0380
0580
0980
1F80
1180
2180
4180
E3C0
ENDCHAR

STARTCHAR AE
ENCODING 198
SWIDTH 944 0
DWIDTH 14 0
BBX 13 11 1 0
BITMAP
0FF8
0588
0988
0980
13E0
1F00
1300
2600
2610
4620
EFE0
ENDCHAR

STARTCHAR Iogonek
ENCODING 199
SWIDTH 389 0
DWIDTH 6 0
BBX 6 13 0 -2
BITMAP
3C
18
18
18
30
30
30
60
60
60
F0
60
38
ENDCHAR

STARTCHAR Ccaron
ENCODING 200
SWIDTH 685 0
DWIDTH 10 0
BBX 9 14 1 0
BITMAP
0D80
0700
0000
0F80
3080
6080
6000
C000
C000
C000
C000
C000
6100
3E00
ENDCHAR

STARTCHAR Eacute
ENCODING 201
SWIDTH 611 0
DWIDTH 9 0
BBX 9 14 0 0
BITMAP
0300
0600
0000
3F80
1880
1880
1800
3000
3E00
3000
6000
6080
6100
FF00
ENDCHAR

STARTCHAR Eogonek
ENCODING 202
SWIDTH 611 0
DWIDTH 9 0
BBX 9 13 0 -2
BITMAP
3F80
1880
1880
1800
3000
3E00
3000
6000
6080
6100
FF00
0C00
0700
ENDCHAR

STARTCHAR Edieresis
ENCODING 203
SWIDTH 611 0
DWIDTH 9 0
BBX 9 14 0 0
BITMAP
0D80
0D80
0000
3F80
1880
1880
1800
3000
3E00
3000
6000
6080
6100
FF00
ENDCHAR

STARTCHAR Edotaccent
ENCODING 204
SWIDTH 611 0
DWIDTH 9 0
BBX 9 14 0 0
BITMAP
0600
0600
0000
3F80
1880
1880
1800
3000
3E00
3000
6000
6080
6100
FF00
ENDCHAR

STARTCHAR Iacute
ENCODING 205
SWIDTH 389 0
DWIDTH 6 0
BBX 7 14 0 0
BITMAP
06
0C
00
3C
18
18
18
30
30
30
60
60
60
F0
ENDCHAR

STARTCHAR Icircumflex
ENCODING 206
SWIDTH 389 0
DWIDTH 6 0
BBX 8 14 0 0
BITMAP
0E
1B
00
3C
18
18
18
30
30
30
60
60
60
F0
ENDCHAR

STARTCHAR Imacron
ENCODING 207
SWIDTH 389 0
DWIDTH 6 0
BBX 7 13 0 0
BITMAP
3E
00
3C
18
18
18
30
30
30
60
60
60
F0
ENDCHAR

STARTCHAR Eth
ENCODING 208
SWIDTH 778 0
DWIDTH 12 0
BBX 11 11 0 0
BITMAP
3F80
18C0
1860
1860
3060
7C60
3060
60C0
60C0
6180
FE00
ENDCHAR

STARTCHAR Ncommaaccent
ENCODING 209
SWIDTH 778 0
DWIDTH 12 0
BBX 12 16 0 -5
BITMAP
3070
1820
1820
1C20
2C40
2640
2640
4380
4380
4180
E180
0000
0C00
0C00
0800
1000
ENDCHAR

STARTCHAR Omacron
ENCODING 210
SWIDTH 833 0
DWIDTH 12 0
BBX 11 13 1 0
BITMAP
0F80
0000
0F80
30C0
6060
6060
C060
C060
C060
C0C0
C0C0
6180
3E00
ENDCHAR

STARTCHAR Kcommaaccent
ENCODING 211
SWIDTH 722 0
DWIDTH 10 0
BBX 10 16 0 -5
BITMAP
3CC0
1880
1900
1A00
3400
3800
3800
6C00
6600
6300
F380
0000
1800
1800
1000
2000
ENDCHAR

STARTCHAR Ocircumflex
ENCODING 212
SWIDTH 833 0
DWIDTH 12 0
BBX 11 14 1 0
BITMAP
0700
0D80
0000
0F80
30C0
6060
6060
C060
C060
C060
C0C0
C0C0
6180
3E00
ENDCHAR

STARTCHAR Otilde
ENCODING 213
SWIDTH 833 0
DWIDTH 12 0
BBX 11 14 1 0
BITMAP
0680
0B00
0000
0F80
30C0
6060
6060
C060
C060
C060
C0C0
C0C0
6180
3E00
ENDCHAR

STARTCHAR Odieresis
ENCODING 214
SWIDTH 833 0
DWIDTH 12 0
BBX 11 14 1 0
BITMAP
0D80
0D80
0000
0F80
30C0
6060
6060
C060
C060
C060
C0C0
C0C0
6180
3E00
ENDCHAR

STARTCHAR multiply
ENCODING 215
SWIDTH 606 0
DWIDTH 9 0
BBX 7 6 1 2
BITMAP
C6
6C
38
38
6C
C6
ENDCHAR

STARTCHAR Oslash
ENCODING 216
SWIDTH 833 0
DWIDTH 12 0
BBX 11 11 1 0
BITMAP
0FA0
30C0
60E0
6160
C260
C460
C460
C8C0
D0C0
6180
BE00
ENDCHAR

STARTCHAR Uogonek
ENCODING 217
SWIDTH 778 0
DWIDTH 12 0
BBX 11 13 1 -2
BITMAP
71E0
30C0
30C0
30C0
6180
6180
6180
C300
C300
C700
7B80
0300
01C0
ENDCHAR

STARTCHAR Uacute
ENCODING 218
SWIDTH 778 0
DWIDTH 12 0
BBX 11 14 1 0
BITMAP
0300
0600
0000
71E0
30C0
30C0
30C0
6180
6180
6180
C300
C300
C700
7B80
ENDCHAR

STARTCHAR Ucircumflex
ENCODING 219
SWIDTH 778 0
DWIDTH 12 0
BBX 11 14 1 0
BITMAP
0700
0D80
0000
71E0
30C0
30C0
30C0
6180
6180
6180
C300
C300
C700
7B80
ENDCHAR

STARTCHAR Udieresis
ENCODING 220
SWIDTH 778 0
DWIDTH 12 0
BBX 11 14 1 0
BITMAP
0D80
0D80
0000
71E0
30C0
30C0
30C0
6180
6180
6180
C300
C300
C700
7B80
ENDCHAR

STARTCHAR Utilde
ENCODING 221
SWIDTH 778 0
DWIDTH 12 0
BBX 11 14 1 0
BITMAP
0680
0B00
0000
71E0
30C0
30C0
30C0
6180
6180
6180
C300
C300
C700
7B80
ENDCHAR

STARTCHAR Umacron
ENCODING 222
SWIDTH 778 0
DWIDTH 12 0
BBX 11 13 1 0
BITMAP
0F80
0000
71E0
30C0
30C0
30C0
6180
6180
6180
C300
C300
C700
7B80
ENDCHAR

STARTCHAR germandbls
ENCODING 223
SWIDTH 556 0
DWIDTH 8 0
BBX 10 16 -2 -4
BITMAP
0380
06C0
04C0
0CC0
3C80
0D00
0D00
1980
1980
1980
1580
3700
3000
2000
4000
8000
ENDCHAR

STARTCHAR amacron
ENCODING 224
SWIDTH 556 0
DWIDTH 8 0
BBX 8 9 0 0
BITMAP
1F
00
1A
26
46
CC
CC
DD
66
ENDCHAR

STARTCHAR aacute
ENCODING 225
SWIDTH 556 0
DWIDTH 8 0
BBX 8 10 0 0
BITMAP
06
0C
00
1A
26
46
CC
CC
DD
66
ENDCHAR

STARTCHAR acircumflex
ENCODING 226
SWIDTH 556 0
DWIDTH 8 0
BBX 8 10 0 0
BITMAP
0E
1B
00
1A
26
46
CC
CC
DD
66
ENDCHAR

STARTCHAR atilde
ENCODING 227
SWIDTH 556 0
DWIDTH 8 0
BBX 8 10 0 0
BITMAP
0D
16
00
1A
26
46
CC
CC
DD
66
ENDCHAR

STARTCHAR adieresis
ENCODING 228
SWIDTH 556 0
DWIDTH 8 0
BBX 8 10 0 0
BITMAP
1B
1B
00
1A
26
46
CC
CC
DD
66
ENDCHAR

STARTCHAR aring
ENCODING 229
SWIDTH 556 0
DWIDTH 8 0
BBX 8 11 0 0
BITMAP
0C
12
0C
00
1A
26
46
CC
CC
DD
66
ENDCHAR

STARTCHAR ae
ENCODING 230
SWIDTH 738 0
DWIDTH 11 0
BBX 10 7 0 0
BITMAP
39C0
4EC0
0C80
3F00
6C00
CC80
7700
ENDCHAR

STARTCHAR iogonek
ENCODING 231
SWIDTH 333 0
DWIDTH 5 0
BBX 5 13 1 -2
BITMAP
30
30
00
00
30
F0
60
60
C0
D0
60
60
38
ENDCHAR

STARTCHAR ccaron
ENCODING 232
SWIDTH 444 0
DWIDTH 7 0
BBX 7 10 1 0
BITMAP
36
1C
00
1C
24
40
C0
C0
C8
70
ENDCHAR

STARTCHAR eacute
ENCODING 233
SWIDTH 444 0
DWIDTH 7 0
BBX 7 10 1 0
BITMAP
06
0C
00
1C
2C
48
F0
C0
C8
70
ENDCHAR

STARTCHAR eogonek
ENCODING 234
SWIDTH 444 0
DWIDTH 7 0
BBX 6 9 1 -2
BITMAP
1C
2C
48
F0
C0
C8
70
30
1C
ENDCHAR

STARTCHAR edieresis
ENCODING 235
SWIDTH 444 0
DWIDTH 7 0
BBX 7 10 1 0
BITMAP
36
36
00
1C
2C
48
F0
C0
C8
70
ENDCHAR

STARTCHAR edotaccent
ENCODING 236
SWIDTH 444 0
DWIDTH 7 0
BBX 6 10 1 0
BITMAP
18
18
00
1C
2C
48
F0
C0
C8
70
ENDCHAR

STARTCHAR iacute
ENCODING 237
SWIDTH 333 0
DWIDTH 5 0
BBX 5 10 1 0
BITMAP
18
30
00
30
F0
60
60
C0
D0
60
ENDCHAR

STARTCHAR icircumflex
ENCODING 238
SWIDTH 333 0
DWIDTH 5 0
BBX 6 10 1 0
BITMAP
38
6C
00
30
F0
60
60
C0
D0
60
ENDCHAR

STARTCHAR imacron
ENCODING 239
SWIDTH 333 0
DWIDTH 5 0
BBX 6 9 1 0
BITMAP
7C
00
30
F0
60
60
C0
D0
60
ENDCHAR

STARTCHAR dcroat
ENCODING 240
SWIDTH 556 0
DWIDTH 8 0
BBX 9 12 0 0
BITMAP
0100
0700
0300
1F80
0600
1E00
2600
6600
CC00
CC00
DD00
6600
ENDCHAR

STARTCHAR ncommaaccent
ENCODING 241
SWIDTH 556 0
DWIDTH 8 0
BBX 8 12 0 -5
BITMAP
2C
F6
66
66
CC
CD
C6
00
30
30
20
40
ENDCHAR

STARTCHAR omacron
ENCODING 242
SWIDTH 556 0
DWIDTH 8 0
BBX 8 9 1 0
BITMAP
1F
00
1C
26
46
C6
C4
C8
70
ENDCHAR

STARTCHAR kcommaaccent
ENCODING 243
SWIDTH 556 0
DWIDTH 8 0
BBX 8 17 0 -5
BITMAP
10
70
30
30
30
63
6C
78
70
D8
CD
C6
00
30
30
20
40
ENDCHAR

STARTCHAR ocircumflex
ENCODING 244
SWIDTH 556 0
DWIDTH 8 0
BBX 8 10 1 0
BITMAP
0E
1B
00
1C
26
46
C6
C4
C8
70
ENDCHAR

STARTCHAR otilde
ENCODING 245
SWIDTH 556 0
DWIDTH 8 0
BBX 8 10 1 0
BITMAP
0D
16
00
1C
26
46
C6
C4
C8
70
ENDCHAR

STARTCHAR odieresis
ENCODING 246
SWIDTH 556 0
DWIDTH 8 0
BBX 8 10 1 0
BITMAP
1B
1B
00
1C
26
46
C6
C4
C8
70
ENDCHAR

STARTCHAR divide
ENCODING 247
SWIDTH 606 0
DWIDTH 9 0
BBX 8 8 1 1
BITMAP
18
18
00
FF
FF
00
18
18
ENDCHAR

STARTCHAR oslash
ENCODING 248
SWIDTH 556 0
DWIDTH 8 0
BBX 7 7 1 0
BITMAP
1A
26
4E
D6
E4
C8
B0
ENDCHAR

STARTCHAR uogonek
ENCODING 249
SWIDTH 556 0
DWIDTH 8 0
BBX 9 9 0 -2
BITMAP
2600
E600
6600
CC00
CC00
CD00
7600
0600
0380
ENDCHAR

STARTCHAR uacute
ENCODING 250
SWIDTH 556 0
DWIDTH 8 0
BBX 8 10 0 0
BITMAP
0C
18
00
26
E6
66
CC
CC
CD
76
ENDCHAR

STARTCHAR ucircumflex
ENCODING 251
SWIDTH 556 0
DWIDTH 8 0
BBX 8 10 0 0
BITMAP
1C
36
00
26
E6
66
CC
CC
CD
76
ENDCHAR

STARTCHAR udieresis
ENCODING 252
SWIDTH 556 0
DWIDTH 8 0
BBX 8 10 0 0
BITMAP
36
36
00
26
E6
66
CC
CC
CD
76
ENDCHAR

STARTCHAR utilde
ENCODING 253
SWIDTH 556 0
DWIDTH 8 0
BBX 8 10 0 0
BITMAP
1A
2C
00
26
E6
66
CC
CC
CD
76
ENDCHAR

STARTCHAR umacron
ENCODING 254
SWIDTH 556 0
DWIDTH 8 0
BBX 8 9 0 0
BITMAP
3E
00
26
E6
66
CC
CC
CD
76
ENDCHAR

STARTCHAR dotaccent
ENCODING 255
SWIDTH 333 0
DWIDTH 5 0
BBX 2 2 2 8
BITMAP
C0
C0
ENDCHAR
ENDFONT
